<svg width="56" height="56" fill="none" xmlns="http://www.w3.org/2000/svg"><path d="M8.753 29.743h15.75a.874.874 0 00.875-.875v-3.5a.874.874 0 00-.875-.875H8.753a.874.874 0 00-.875.875v3.5c0 .484.39.875.875.875zm.875-3.5h14v1.75h-14v-1.75zm13.125 5.25a2.628 2.628 0 00-2.625 2.625 2.628 2.628 0 002.625 2.625 2.628 2.628 0 002.625-2.625 2.628 2.628 0 00-2.625-2.625zm0 3.5a.875.875 0 110-1.75.875.875 0 010 1.75zm-6.125-3.5a2.628 2.628 0 00-2.625 2.625 2.628 2.628 0 002.625 2.625 2.628 2.628 0 002.625-2.625 2.628 2.628 0 00-2.625-2.625zm0 3.5a.875.875 0 110-1.75.875.875 0 010 1.75zm-6.125 1.75a2.628 2.628 0 002.625-2.625 2.628 2.628 0 00-2.625-2.625 2.628 2.628 0 00-2.625 2.625 2.628 2.628 0 002.625 2.625zm0-3.5a.875.875 0 110 1.75.875.875 0 010-1.75zm12.25 4.375a2.628 2.628 0 00-2.625 2.625 2.628 2.628 0 002.625 2.625 2.628 2.628 0 002.625-2.625 2.628 2.628 0 00-2.625-2.625zm0 3.5a.875.875 0 110-1.75.875.875 0 010 1.75zm-6.125-3.5a2.628 2.628 0 00-2.625 2.625 2.628 2.628 0 002.625 2.625 2.628 2.628 0 002.625-2.625 2.628 2.628 0 00-2.625-2.625zm0 3.5a.875.875 0 110-1.75.875.875 0 010 1.75zm-6.125 1.75a2.628 2.628 0 002.625-2.625 2.628 2.628 0 00-2.625-2.625 2.628 2.628 0 00-2.625 2.625 2.628 2.628 0 002.625 2.625zm0-3.5a.875.875 0 110 1.75.875.875 0 010-1.75zm12.25 4.375a2.628 2.628 0 00-2.625 2.625 2.628 2.628 0 002.625 2.625 2.628 2.628 0 002.625-2.625 2.628 2.628 0 00-2.625-2.625zm0 3.5a.875.875 0 110-1.75.875.875 0 010 1.75zm-6.125-3.5a2.628 2.628 0 00-2.625 2.625 2.628 2.628 0 002.625 2.625 2.628 2.628 0 002.625-2.625 2.628 2.628 0 00-2.625-2.625zm0 3.5a.875.875 0 110-1.75.875.875 0 010 1.75zm-6.125 1.75a2.628 2.628 0 002.625-2.625 2.628 2.628 0 00-2.625-2.625 2.628 2.628 0 00-2.625 2.625 2.628 2.628 0 002.625 2.625zm0-3.5a.875.875 0 110 1.75.875.875 0 010-1.75z" fill="#fff"/><path d="M36.74 13.136h-.066a7.031 7.031 0 00-3.434-5.167V7.6c0-.044-.019-.084-.026-.127-.01-.063-.015-.127-.038-.188-.02-.055-.056-.1-.088-.15-.029-.045-.052-.091-.09-.13-.048-.052-.107-.087-.165-.126-.033-.02-.056-.052-.092-.069l-.026-.011-.02-.008a7.033 7.033 0 00-5.911-.003c-.005.002-.009.003-.013.006l-.028.011c-.04.018-.067.053-.103.077-.055.037-.11.07-.156.116-.038.041-.062.09-.091.135-.032.05-.067.093-.089.148-.022.06-.027.123-.037.187-.007.044-.026.083-.026.128v.37a7.034 7.034 0 00-3.441 5.169h-.06a.874.874 0 00-.875.875v2.625c0 .484.39.875.875.875h14a.874.874 0 00.874-.875V14.01a.874.874 0 00-.874-.874zm-10.5-3.038v.41a.874.874 0 101.75 0V8.186a5.283 5.283 0 013.498.002v2.322a.874.874 0 101.75 0v-.406a5.291 5.291 0 011.666 3.033H24.569a5.298 5.298 0 011.672-3.038zm9.623 5.663h-12.25v-.875h12.25v.875z" fill="#7ED95F"/><path d="M41.998 24.505h2.625a.874.874 0 100-1.75h-2.625a.874.874 0 100 1.75zm2.625 2.625h-3.5a.874.874 0 100 1.75h3.5a.874.874 0 100-1.75zm0 4.375h-2.625a.874.874 0 100 1.75h2.625a.874.874 0 100-1.75zm0 4.375h-1.749a.874.874 0 100 1.75h1.75a.874.874 0 100-1.75zm0 4.375h-2.625a.874.874 0 100 1.75h2.625a.874.874 0 100-1.75zm0 4.375h-3.5a.874.874 0 100 1.75h3.5a.874.874 0 100-1.75z" fill="#fff"/><path d="M51.62 7.002a.872.872 0 00-.255-.61L45.243.263a.866.866 0 00-.286-.19.867.867 0 00-.334-.067H16.628a.874.874 0 00-.875.875v20.111h-8.75a2.628 2.628 0 00-2.625 2.625v29.75a2.628 2.628 0 002.625 2.625h19.25a2.628 2.628 0 002.625-2.625v-.878h21.87a.874.874 0 00.874-.875V7.01L51.621 7zm-6.122-4.007l3.138 3.14h-3.138v-3.14zM6.128 23.618c0-.483.392-.875.875-.875h19.25c.483 0 .875.392.875.875v26.25a.875.875 0 01-.875.875H7.003a.875.875 0 01-.875-.875v-26.25zm20.125 30.625H7.003a.875.875 0 01-.875-.875v-1.037c.274.098.566.162.875.162h19.25c.308 0 .6-.063.875-.162v1.037a.875.875 0 01-.875.875zm2.625-4.375V46.38h7.868a.874.874 0 100-1.75h-7.868v-2.625h7.868a.874.874 0 100-1.75h-7.868V37.63h7.868a.874.874 0 100-1.75h-7.868v-2.625h7.868a.874.874 0 100-1.75h-7.868V28.88h7.868a.874.874 0 100-1.75h-7.868v-2.625h7.868a.874.874 0 100-1.75H28.72a2.622 2.622 0 00-2.467-1.762h-8.75V1.757h26.245v5.254c0 .483.391.875.875.875h5.25V50.74H28.877v-.873z" fill="#fff"/></svg>