<svg width="11" height="19" viewBox="0 0 11 19" fill="none" xmlns="http://www.w3.org/2000/svg">
<path d="M6.96024 18.7183H4.14418C3.67381 18.7183 3.29118 18.3282 3.29118 17.8485V11.3717H1.64823C1.17786 11.3717 0.795227 10.9814 0.795227 10.5019V7.72651C0.795227 7.24687 1.17786 6.85671 1.64823 6.85671H3.29118V5.46691C3.29118 4.08888 3.71553 2.91647 4.51822 2.07663C5.32453 1.23295 6.45136 0.787109 7.77688 0.787109L9.92454 0.790666C10.3941 0.791487 10.7761 1.18165 10.7761 1.66047V4.23731C10.7761 4.71695 10.3936 5.10712 9.92334 5.10712L8.47734 5.10766C8.03635 5.10766 7.92406 5.19782 7.90004 5.22545C7.86046 5.27128 7.81337 5.40083 7.81337 5.75858V6.85657H9.81467C9.96533 6.85657 10.1113 6.89446 10.2367 6.96588C10.5073 7.12005 10.6756 7.41158 10.6756 7.72664L10.6745 10.502C10.6745 10.9814 10.2919 11.3715 9.82151 11.3715H7.81337V17.8485C7.81337 18.3282 7.43061 18.7183 6.96024 18.7183ZM4.32208 17.6671H6.78234V10.9011C6.78234 10.5808 7.03792 10.3203 7.35185 10.3203H9.64361L9.64455 7.90791H7.35172C7.03778 7.90791 6.78234 7.64743 6.78234 7.32718V5.75858C6.78234 5.34789 6.82326 4.88084 7.12727 4.5298C7.4946 4.10543 8.07351 4.05646 8.47707 4.05646L9.74517 4.05591V1.8416L7.77607 1.83831C5.64585 1.83831 4.32208 3.22879 4.32208 5.46691V7.32718C4.32208 7.6473 4.06663 7.90791 3.75269 7.90791H1.82613V10.3203H3.75269C4.06663 10.3203 4.32208 10.5808 4.32208 10.9011V17.6671ZM9.92253 1.84187H9.92267H9.92253Z" fill="white" fill-opacity="0.8"/>
</svg>
