<svg width="17" height="19" viewBox="0 0 17 19" fill="none" xmlns="http://www.w3.org/2000/svg">
<g clip-path="url(#clip0)">
<path d="M12.4402 0.821289H4.77453C2.27966 0.821289 0.25 2.99866 0.25 5.67509V13.8988C0.25 16.5751 2.27966 18.7525 4.77453 18.7525H12.4403C14.9351 18.7525 16.9648 16.5751 16.9648 13.8988V5.67509C16.9648 2.99866 14.9351 0.821289 12.4402 0.821289V0.821289ZM15.9849 13.8988C15.9849 15.9955 14.3948 17.7013 12.4402 17.7013H4.77453C2.81998 17.7013 1.22989 15.9955 1.22989 13.8988V5.67509C1.22989 3.5783 2.81998 1.87249 4.77453 1.87249H12.4403C14.3948 1.87249 15.9849 3.5783 15.9849 5.67509V13.8988Z" fill="white" fill-opacity="0.8"/>
<path d="M8.60742 4.88403C6.0873 4.88403 4.03711 7.08343 4.03711 9.78695C4.03711 12.4905 6.0873 14.6899 8.60742 14.6899C11.1275 14.6899 13.1777 12.4905 13.1777 9.78695C13.1777 7.08343 11.1275 4.88403 8.60742 4.88403ZM8.60742 13.6387C6.62775 13.6387 5.017 11.9108 5.017 9.78695C5.017 7.66321 6.62775 5.93524 8.60742 5.93524C10.5872 5.93524 12.1978 7.66321 12.1978 9.78695C12.1978 11.9108 10.5872 13.6387 8.60742 13.6387Z" fill="white" fill-opacity="0.8"/>
<path d="M13.287 3.14258C12.5423 3.14258 11.9365 3.79253 11.9365 4.59133C11.9365 5.39027 12.5423 6.04022 13.287 6.04022C14.0317 6.04022 14.6376 5.39027 14.6376 4.59133C14.6376 3.7924 14.0317 3.14258 13.287 3.14258ZM13.287 4.98889C13.0827 4.98889 12.9164 4.81049 12.9164 4.59133C12.9164 4.37204 13.0827 4.19378 13.287 4.19378C13.4914 4.19378 13.6577 4.37204 13.6577 4.59133C13.6577 4.81049 13.4914 4.98889 13.287 4.98889Z" fill="white" fill-opacity="0.8"/>
</g>
<defs>
<clipPath id="clip0">
<rect width="16.7148" height="17.9312" fill="white" transform="translate(0.25 0.821289)"/>
</clipPath>
</defs>
</svg>
