<svg width="56" height="56" fill="none" xmlns="http://www.w3.org/2000/svg"><g clip-path="url(#clip0)"><path d="M42.373 6.207l-14-6.129a.933.933 0 00-.746 0l-14 6.129a.933.933 0 00-.56.855v14.653a10.28 10.28 0 004.256 8.314l9.675 6.979a1.708 1.708 0 002.003 0l9.676-6.978a10.28 10.28 0 004.256-8.314V7.062a.933.933 0 00-.56-.855zm-1.306 15.509a8.408 8.408 0 01-3.482 6.8L28 35.43l-9.585-6.913a8.408 8.408 0 01-3.482-6.8V7.672L28 1.952l13.067 5.72v14.044z" fill="#fff"/><path d="M27.627 4.153L17.36 8.648a.933.933 0 00-.56.855v12.213a6.533 6.533 0 002.707 5.286l7.947 5.733a.933.933 0 001.092 0l7.947-5.733a6.533 6.533 0 002.707-5.286V9.503c0-.37-.22-.706-.56-.855L28.373 4.153a.933.933 0 00-.746 0zm9.706 5.96v11.603a4.667 4.667 0 01-1.932 3.772L28 30.828l-7.401-5.34a4.667 4.667 0 01-1.932-3.772V10.113L28 6.027l9.333 4.086zm-29.6 20.874l-2.02-4.717A2.976 2.976 0 00.27 28.672l3.657 8.046a9.913 9.913 0 002.027 2.925l5.752 5.753a1.856 1.856 0 00-.506 1.27v7.466c0 1.031.836 1.867 1.867 1.867h10.266a1.867 1.867 0 001.867-1.867v-7.466a1.867 1.867 0 00-1.867-1.867v-1.737a9.78 9.78 0 00-2.046-6.113 6.72 6.72 0 00-3.11-2.27 18.463 18.463 0 01-5.344-3.428 4.293 4.293 0 00-5.1-.265zm15.6 23.146H13.067v-7.466h10.266v7.466zm-3.502-16.018a7.92 7.92 0 011.636 4.948V44.8h-7.718l-6.476-6.476a8.072 8.072 0 01-1.647-2.377l-3.658-8.046a1.11 1.11 0 112.03-.896l2.087 4.87a11.036 11.036 0 002.354 3.476l4.264 4.264a.933.933 0 101.32-1.32l-4.264-4.264a9.205 9.205 0 01-1.15-1.4 2.427 2.427 0 013.022.05 19.9 19.9 0 005.955 3.771 4.902 4.902 0 012.245 1.663z" fill="#fff"/><path d="M20.533 49.467H19.6a.933.933 0 100 1.866h.933a.933.933 0 100-1.866zM52.072 36.72l3.658-8.047a2.975 2.975 0 10-5.443-2.403l-2.014 4.699a4.305 4.305 0 00-5.106.28 18.465 18.465 0 01-5.344 3.429 6.72 6.72 0 00-3.11 2.269 9.78 9.78 0 00-2.046 6.116V44.8a1.867 1.867 0 00-1.867 1.867v7.466c0 1.031.836 1.867 1.867 1.867h10.266a1.867 1.867 0 001.867-1.867v-7.466a1.855 1.855 0 00-.506-1.27l5.752-5.753a9.914 9.914 0 002.026-2.925zm-9.139 17.413H32.667v-7.466h10.266v7.466zm-.682-9.333h-7.718v-1.737a7.919 7.919 0 011.636-4.947 4.906 4.906 0 012.24-1.664 19.892 19.892 0 005.956-3.77 2.427 2.427 0 013.029-.06c-.338.508-.725.98-1.157 1.41l-4.263 4.265a.933.933 0 001.32 1.32l4.263-4.265c1-.997 1.8-2.178 2.354-3.477l2.088-4.87a1.108 1.108 0 011.952-.163c.204.317.233.716.077 1.06l-3.658 8.046a8.072 8.072 0 01-1.647 2.377L42.25 44.8z" fill="#fff"/><path d="M36.4 49.467h-.933a.933.933 0 100 1.866h.933a.933.933 0 100-1.866z" fill="#fff"/><path d="M22.96 19.787a.933.933 0 00-1.12 1.493l3.733 2.8a.933.933 0 001.337-.229l7.466-11.2a.934.934 0 00-1.553-1.036l-6.92 10.38-2.943-2.208z" fill="#7ED95F"/></g><defs><clipPath id="clip0"><path fill="#fff" d="M0 0h56v56H0z"/></clipPath></defs></svg>