<svg width="56" height="56" fill="none" xmlns="http://www.w3.org/2000/svg"><g clip-path="url(#clip0)"><path d="M50.763 38.523a.819.819 0 00.819-.818V4.668a2.554 2.554 0 00-2.551-2.55H36.719a6.261 6.261 0 00-.27-.3C35.316.646 33.816 0 32.226 0c-1.59 0-3.09.646-4.225 1.818a6.313 6.313 0 00-.27.3H15.418a2.554 2.554 0 00-2.55 2.55v15.163a15.32 15.32 0 00-3.971 2.87.819.819 0 101.157 1.159c2.58-2.58 6.008-4 9.655-4 7.53 0 13.655 6.125 13.655 13.654 0 7.53-6.125 13.655-13.654 13.655-7.53 0-13.655-6.125-13.655-13.654 0-2.372.617-4.707 1.785-6.755a.818.818 0 10-1.422-.81c-1.309 2.293-2 4.91-2 7.565 0 5.973 3.444 11.157 8.45 13.672v6.262A2.554 2.554 0 0015.418 56h33.613a2.554 2.554 0 002.551-2.55V41.548a.819.819 0 00-1.637 0v11.9c0 .504-.41.914-.914.914H15.42a.915.915 0 01-.914-.914v-5.555c1.625.59 3.378.912 5.204.912 2.703 0 5.244-.706 7.45-1.941h5.436a.819.819 0 100-1.637h-3.067C32.87 42.42 35 38.212 35 33.515c0-8.432-6.86-15.292-15.291-15.292-.295 0-.588.01-.88.026v-8.4h2.961v2.022c0 .48.227.944.607 1.239l.778.602a1.317 1.317 0 001.614 0l.567-.439.566.44a1.317 1.317 0 001.614 0l.566-.44.567.44a1.317 1.317 0 001.614 0l.566-.44.567.44a1.318 1.318 0 001.614 0l.566-.44.567.44a1.317 1.317 0 001.614 0l.566-.44.567.44a1.317 1.317 0 001.614 0l.567-.44.567.44a1.318 1.318 0 001.613 0c.591-.444 1.445-.993 1.387-1.842V9.85h2.96v35.378h-8.89a.819.819 0 100 1.637h9.163c.753 0 1.365-.612 1.365-1.364V9.577c0-.752-.612-1.364-1.365-1.364H42.66v-.035c0-.987-.803-1.79-1.79-1.79h-2.69a6.08 6.08 0 00-.455-2.633H49.03c.504 0 .914.41.914.913v33.037c0 .452.366.818.818.818zM18.557 8.213c-.752 0-1.364.612-1.364 1.364v8.852c-.92.152-1.82.386-2.688.7V4.668c0-.504.41-.914.913-.914h11.308a6.087 6.087 0 00-.455 2.633h-2.69c-.987 0-1.79.803-1.79 1.79v.035h-3.234zm22.464-.035v3.658l-.555.43-.567-.439a1.316 1.316 0 00-1.614 0l-.567.44-.567-.44a1.317 1.317 0 00-1.614 0l-.566.44-.567-.44a1.318 1.318 0 00-1.614 0l-.566.44-.567-.44a1.317 1.317 0 00-1.613 0l-.567.44-.567-.44a1.317 1.317 0 00-1.614 0l-.566.44-.567-.44a1.317 1.317 0 00-1.614 0l-.566.44-.555-.43v-3.66c0-.083.069-.152.153-.152h17.288c.084 0 .152.069.152.153zm-13.109-1.79a4.404 4.404 0 01-.012-.302c0-2.411 1.98-4.449 4.325-4.449 2.344 0 4.324 2.038 4.324 4.45 0 .1-.005.2-.011.301h-8.626z" fill="#fff"/><path d="M12.772 40.194a.819.819 0 001.158.022l4.243-4.086c.451.266.976.42 1.537.42a3.038 3.038 0 003.034-3.035 3.04 3.04 0 00-2.216-2.922v-4.001a.819.819 0 10-1.637 0v4.001a3.04 3.04 0 00-2.216 2.922c0 .52.131 1.008.362 1.437l-4.243 4.085a.818.818 0 00-.022 1.157zm6.937-8.077a1.4 1.4 0 011.398 1.398 1.4 1.4 0 01-1.398 1.397 1.4 1.4 0 01-1.397-1.397 1.4 1.4 0 011.397-1.398z" fill="#7ED95F"/><path d="M19.69 45.096a.865.865 0 100-1.73.865.865 0 000 1.73zm0-21.542a.865.865 0 100-1.73.865.865 0 000 1.73zM8.919 34.325a.865.865 0 100-1.73.865.865 0 000 1.73zm21.541 0a.865.865 0 100-1.73.865.865 0 000 1.73zm-17.033 7.941a.865.865 0 101.485.886.865.865 0 00-1.485-.886zm11.339-17.312a.865.865 0 10.886-1.485.865.865 0 00-.886 1.485zm-13.882 2.244a.865.865 0 10-.887 1.485.865.865 0 00.887-1.485zm17.611 12.525a.865.865 0 10.887-1.486.865.865 0 00-.887 1.486zm-4.2 3.512a.865.865 0 101.501-.86.865.865 0 00-1.501.86zm-9.531-18.369a.865.865 0 10-.86-1.501.865.865 0 00.86 1.501zm13.84 2.488a.865.865 0 10.86 1.5.865.865 0 00-.86-1.5zM9.915 38.066a.865.865 0 10.86 1.5.865.865 0 00-.86-1.5z" fill="#fff"/><path d="M36.293 23.237h5.302a.819.819 0 000-1.637h-5.302a.819.819 0 100 1.637zm6.121-4.093a.819.819 0 00-.819-.818h-8.454a.819.819 0 100 1.637h8.454a.818.818 0 00.819-.819z" fill="#7ED95F"/></g><defs><clipPath id="clip0"><path fill="#fff" d="M0 0h56v56H0z"/></clipPath></defs></svg>