<svg width="20" height="20" viewBox="0 0 20 20" fill="none" xmlns="http://www.w3.org/2000/svg">
<g clip-path="url(#clip0)">
<path d="M7.66074 17.9815C4.59226 17.9815 2.16705 17.4338 1.00676 16.479L0.984181 16.4603L0.963702 16.4394C0.688078 16.1576 0.597746 15.788 0.716131 15.4254L0.726932 15.3953C0.870565 15.0283 1.22249 14.7812 1.60388 14.7789C2.38881 14.765 3.07556 14.6694 3.69876 14.4838C2.70469 14.0114 2.01416 13.1935 1.60332 12.0097C1.46516 11.6405 1.58438 11.2312 1.90279 10.9871C1.98134 10.9268 2.07013 10.8812 2.1641 10.8507C1.61173 10.1992 1.2037 9.45779 0.975204 8.67369L0.96805 8.64933L0.963141 8.62439C0.885573 8.22783 1.05908 7.82008 1.37707 7.64452C1.51046 7.56627 1.65536 7.52571 1.80081 7.52227C1.644 7.17716 1.52996 6.82287 1.46235 6.46644C1.27467 5.47869 1.42953 4.4885 1.92243 3.52339L2.03646 3.29035C2.12778 3.1039 2.30227 2.9729 2.50341 2.93951C2.70455 2.90626 2.91074 2.97419 3.0548 3.12138L3.26253 3.33392C4.90365 5.09187 6.37365 5.92598 8.91514 6.49668C9.02862 5.4999 9.4504 4.57334 10.1308 3.84414C10.9406 2.97649 12.0219 2.48963 13.1756 2.47301H13.1832C14.0249 2.47301 15.0691 2.96402 15.7005 3.31027C16.2423 3.12912 16.8949 2.84865 17.5721 2.55212C17.889 2.4002 18.2796 2.46971 18.5287 2.72424C18.7729 2.97376 18.8407 3.32561 18.7111 3.66757C18.6619 3.80759 18.606 3.94503 18.5439 4.07947C18.6366 4.12289 18.7215 4.1818 18.7931 4.25503C19.0099 4.47646 19.1002 4.823 19.0232 5.13802L19.0149 5.16797C18.7554 6.02244 18.2569 6.71839 17.5977 7.15523C17.4875 13.1461 13.0722 17.9815 7.66074 17.9815ZM2.04067 15.8654C3.13405 16.4975 5.21771 16.8798 7.66074 16.8798C10.0095 16.8798 12.226 15.8495 13.9018 13.9786C15.5913 12.0924 16.5217 9.58763 16.5217 6.92563V6.89568C16.5217 6.65462 16.6516 6.43462 16.8606 6.3214C17.2846 6.09195 17.628 5.70112 17.8513 5.20136C17.6209 5.23848 17.3868 5.14404 17.2433 4.94712C17.0766 4.71824 17.0747 4.4091 17.2387 4.17821C17.3272 4.05353 17.4075 3.92382 17.479 3.78968C16.8942 4.04063 16.3389 4.26564 15.8568 4.41512C15.6816 4.46929 15.4864 4.44808 15.3263 4.35679C14.468 3.86821 13.6686 3.57613 13.1867 3.5747C11.4082 3.6025 9.96223 5.1588 9.96223 7.04573C9.96223 7.24079 9.87751 7.42366 9.73009 7.54763C9.58253 7.67146 9.39065 7.72105 9.20325 7.68321C6.2728 7.09331 4.5363 6.20875 2.7305 4.35464C2.47171 4.98825 2.40102 5.62645 2.52066 6.25662C2.64199 6.89496 2.96475 7.53459 3.45414 8.10629C3.64013 8.32328 3.66482 8.6337 3.51557 8.87863C3.36689 9.12271 3.08425 9.23679 2.81256 9.16241C2.60019 9.10422 2.40494 9.02783 2.21979 8.92966C2.59697 9.76678 3.2457 10.541 4.06121 11.112C4.29756 11.2775 4.39631 11.5861 4.30149 11.8624C4.20653 12.1391 3.94128 12.3173 3.65458 12.2955C3.34221 12.2718 3.06546 12.2112 2.81073 12.109C3.268 13.0605 3.99865 13.5841 5.12429 13.7841C5.39234 13.8319 5.60106 14.0481 5.6437 14.3223C5.68648 14.5965 5.55365 14.8682 5.31337 14.9985C4.35395 15.5182 3.30531 15.7971 2.04067 15.8654Z" fill="white" fill-opacity="0.8"/>
</g>
<defs>
<clipPath id="clip0">
<rect width="18.3851" height="18.7851" fill="white" transform="translate(0.665222 0.821289)"/>
</clipPath>
</defs>
</svg>
