<svg width="87" height="87" viewBox="0 0 87 87" fill="none" xmlns="http://www.w3.org/2000/svg">
<path d="M84.1936 70.317V57.5323C84.1936 55.7053 83.0162 54.1617 81.3871 53.5808V51.9194C81.3871 49.5984 79.4984 47.7097 77.1774 47.7097H61.4837C60.9028 46.0805 59.3593 44.9032 57.5323 44.9032V27.3447C57.5323 23.8226 55.6323 20.553 52.5719 18.8102L25.6734 3.48561C24.4526 1.41165 22.2215 0 19.6452 0C15.7933 0 12.6599 3.12358 12.6332 6.96982H12.629L11.2665 47.8472C8.0489 48.4843 5.6129 51.3244 5.6129 54.7258C5.6129 56.2343 6.10123 57.6235 6.9151 58.7699L2.92292 63.4258C1.03839 65.6247 0 68.4297 0 71.326C0 74.5702 1.2629 77.618 3.55577 79.9109L7.76685 84.122C9.62192 85.9771 12.0888 87 14.7128 87H25.2581H26.6613H29.4677V84.1936H26.6613V76.5039L21.8412 72.6478C20.3776 71.4775 19.4585 69.8077 19.2509 67.9442L18.2447 58.8892C19.1133 57.7203 19.6452 56.289 19.6452 54.7258C19.6452 52.5508 18.6292 50.6284 17.0702 49.3402L23.5938 12.8086C23.8408 12.6389 24.0611 12.4368 24.2856 12.2375L38.6827 26.6346C38.1888 27.4695 37.8871 28.4294 37.8871 29.4677C37.8871 32.0749 39.6832 34.2541 42.0968 34.8814V44.9032H41.5916C39.592 44.9032 37.8548 46.3261 37.4633 48.2864L33.7055 67.0798L33.6858 70.3086C31.9472 72.0809 30.871 74.5043 30.871 77.1774C30.871 82.5925 35.2771 87 40.6935 87H77.1774C82.5939 87 87 82.5925 87 77.1774C87 74.5085 85.9265 72.0879 84.1936 70.317ZM12.629 50.5161C14.95 50.5161 16.8387 52.4049 16.8387 54.7258C16.8387 57.0467 14.95 58.9355 12.629 58.9355C10.3081 58.9355 8.41935 57.0467 8.41935 54.7258C8.41935 52.4049 10.3081 50.5161 12.629 50.5161ZM20.0886 74.8396L23.8548 77.851V78.5806H21.0484V81.3871H23.8548V84.1936H14.7128C12.8381 84.1936 11.0757 83.4625 9.75102 82.1378L5.53994 77.9267C3.77748 76.1643 2.80645 73.8195 2.80645 71.326C2.80645 69.0991 3.60489 66.9423 5.05442 65.2514L8.97082 60.6839C10.0387 61.342 11.2847 61.7419 12.629 61.7419C13.7193 61.7419 14.7381 61.4711 15.66 61.0249L16.4626 68.2529C16.7517 70.8615 18.0399 73.2007 20.0886 74.8396ZM14.463 47.9833C14.3311 47.9468 14.2091 47.8907 14.0758 47.8626L15.2559 12.4438C16.4612 13.4219 17.9753 14.0323 19.6452 14.0323C19.9525 14.0323 20.2443 13.9803 20.5418 13.941L14.463 47.9833ZM19.6452 11.2258C17.3242 11.2258 15.4355 9.33706 15.4355 7.01613C15.4355 4.69519 17.3242 2.80645 19.6452 2.80645C21.9661 2.80645 23.8548 4.69519 23.8548 7.01613C23.8548 9.33706 21.9661 11.2258 19.6452 11.2258ZM61.7419 56.129H64.5484V53.3226H61.7419V50.5161H77.1774C77.9506 50.5161 78.5806 51.1448 78.5806 51.9194V53.3226H67.3548V56.129H79.9839C80.757 56.129 81.3871 56.7577 81.3871 57.5323V68.316C80.1088 67.707 78.6859 67.3548 77.1774 67.3548H61.7419V56.129ZM25.9863 9.96992C26.3736 9.14061 26.601 8.22992 26.636 7.2645L51.1827 21.249C53.3689 22.4937 54.7258 24.8301 54.7258 27.3447V44.9032H44.9032V34.8814C47.3168 34.2541 49.1129 32.0749 49.1129 29.4677C49.1129 26.3722 46.5955 23.8548 43.5 23.8548C42.4616 23.8548 41.5018 24.1565 40.6669 24.6505L25.9863 9.96992ZM40.6935 29.4677C40.6935 27.92 41.9522 26.6613 43.5 26.6613C45.0478 26.6613 46.3064 27.92 46.3064 29.4677C46.3064 31.0155 45.0478 32.2742 43.5 32.2742C41.9522 32.2742 40.6935 31.0155 40.6935 29.4677ZM36.4839 67.4938L40.215 48.8379C40.3455 48.184 40.9251 47.7097 41.5916 47.7097H57.5323C58.3054 47.7097 58.9355 48.3383 58.9355 49.1129V67.3548H40.6935C39.1851 67.3548 37.7622 67.707 36.4839 68.316V67.4938ZM77.1774 84.1936H40.6935C36.8249 84.1936 33.6774 81.0461 33.6774 77.1774C33.6774 73.3087 36.8249 70.1613 40.6935 70.1613H77.1774C81.0461 70.1613 84.1936 73.3087 84.1936 77.1774C84.1936 81.0461 81.0461 84.1936 77.1774 84.1936Z" fill="black"/>
<path d="M75.7742 71.5645C74.0903 71.5645 72.5945 72.3251 71.5645 73.5038C70.5346 72.3251 69.0387 71.5645 67.3549 71.5645C65.671 71.5645 64.1751 72.3251 63.1452 73.5038C62.1152 72.3251 60.6194 71.5645 58.9355 71.5645C57.2516 71.5645 55.7558 72.3251 54.7258 73.5038C53.6959 72.3251 52.2 71.5645 50.5161 71.5645C48.8323 71.5645 47.3364 72.3251 46.3065 73.5038C45.2765 72.3251 43.7807 71.5645 42.0968 71.5645C39.0013 71.5645 36.4839 74.0819 36.4839 77.1774C36.4839 80.2729 39.0013 82.7903 42.0968 82.7903C43.7807 82.7903 45.2765 82.0298 46.3065 80.8511C47.3364 82.0298 48.8323 82.7903 50.5161 82.7903C52.2 82.7903 53.6959 82.0298 54.7258 80.8511C55.7558 82.0298 57.2516 82.7903 58.9355 82.7903C60.6194 82.7903 62.1152 82.0298 63.1452 80.8511C64.1751 82.0298 65.671 82.7903 67.3549 82.7903C69.0387 82.7903 70.5346 82.0298 71.5645 80.8511C72.5945 82.0298 74.0903 82.7903 75.7742 82.7903C78.8697 82.7903 81.3871 80.2729 81.3871 77.1774C81.3871 74.0819 78.8697 71.5645 75.7742 71.5645ZM42.0968 79.9839C40.549 79.9839 39.2903 78.7252 39.2903 77.1774C39.2903 75.6297 40.549 74.371 42.0968 74.371C43.6445 74.371 44.9032 75.6297 44.9032 77.1774C44.9032 78.7252 43.6445 79.9839 42.0968 79.9839ZM50.5161 79.9839C48.9684 79.9839 47.7097 78.7252 47.7097 77.1774C47.7097 75.6297 48.9684 74.371 50.5161 74.371C52.0639 74.371 53.3226 75.6297 53.3226 77.1774C53.3226 78.7252 52.0639 79.9839 50.5161 79.9839ZM58.9355 79.9839C57.3877 79.9839 56.129 78.7252 56.129 77.1774C56.129 75.6297 57.3877 74.371 58.9355 74.371C60.4833 74.371 61.742 75.6297 61.742 77.1774C61.742 78.7252 60.4833 79.9839 58.9355 79.9839ZM67.3549 79.9839C65.8071 79.9839 64.5484 78.7252 64.5484 77.1774C64.5484 75.6297 65.8071 74.371 67.3549 74.371C68.9026 74.371 70.1613 75.6297 70.1613 77.1774C70.1613 78.7252 68.9026 79.9839 67.3549 79.9839ZM75.7742 79.9839C74.2265 79.9839 72.9678 78.7252 72.9678 77.1774C72.9678 75.6297 74.2265 74.371 75.7742 74.371C77.322 74.371 78.5807 75.6297 78.5807 77.1774C78.5807 78.7252 77.322 79.9839 75.7742 79.9839Z" fill="#2C7D10"/>
<path d="M57.5323 50.5161H42.3494L40.7203 58.6604L40.6936 61.7419H57.5323V50.5161ZM54.7259 58.9355H43.5281L44.6507 53.3226H54.7259V58.9355Z" fill="#2C7D10"/>
<path d="M78.5807 58.9355H72.9678V61.7419H78.5807V58.9355Z" fill="black"/>
<path d="M70.1612 58.9355H64.5483V61.7419H70.1612V58.9355Z" fill="black"/>
</svg>
