<svg width="85" height="85" viewBox="0 0 85 85" fill="none" xmlns="http://www.w3.org/2000/svg">
<g clip-path="url(#clip0)">
<path d="M26.9413 59.5109C38.6944 59.5109 48.1824 50.0229 48.1824 38.2698C48.1824 32.6055 46.0583 27.224 42.0928 23.1175L41.102 22.1267L21.277 41.9517L16.6035 37.2782L14.6212 39.2606L21.277 45.9164L41.102 26.0914C43.9341 29.4898 45.3502 33.7381 45.3502 38.128C45.3502 48.324 37.1366 56.537 26.9413 56.537C16.7453 56.537 8.53231 48.4651 8.53231 38.2698C8.53231 32.1802 11.5055 26.6577 16.4618 23.1175L14.9046 20.8517C5.13318 27.5075 2.86802 40.8184 9.52315 50.4481C13.4886 56.1124 20.002 59.5109 26.9413 59.5109Z" fill="#2C7D10"/>
<path d="M22.9761 20.2853L22.4098 17.4532C20.8519 17.7367 19.2941 18.303 17.8781 19.011L19.1531 21.5597C20.2857 20.9934 21.7017 20.5688 22.9761 20.2853Z" fill="black"/>
<path d="M29.6316 20.0025L30.0562 17.1704C28.4984 17.0287 26.9412 17.0287 25.3834 17.0287L25.5252 19.8608C26.9412 19.8608 28.2156 19.8608 29.6316 20.0025Z" fill="black"/>
<path d="M37.5619 19.8608C36.1458 19.011 34.588 18.303 33.0302 17.8784L32.1804 20.5688C33.5965 20.9934 34.8708 21.5597 36.1458 22.2677L37.5619 19.8608Z" fill="black"/>
<path d="M80.752 17.0287H77.9198V12.7805H75.0877V17.0287H72.2555V12.7805H69.4234V17.0287H51.0144V19.8608H69.4234V22.693H72.2555V19.8608H75.0877V22.693H77.9198V19.8608H80.752C81.6011 19.8608 82.168 20.4271 82.168 21.2769V25.5251H50.5892C48.7486 22.1267 46.1992 19.1528 43.226 16.8869L45.3502 14.7628L47.1908 16.6034L49.1731 14.6211L43.5089 8.95678L41.5265 10.9391L43.3671 12.7805L40.8184 15.3291C37.8446 13.4885 34.5879 12.3552 31.1894 11.7889V8.53223C33.5963 8.53223 35.4376 6.69092 35.4376 4.28401C35.4376 1.87642 33.5963 0.0357971 31.1894 0.0357971H22.693C20.2854 0.0357971 18.4448 1.87642 18.4448 4.28401C18.4448 6.69092 20.2854 8.53223 22.693 8.53223V11.7889C8.10704 14.0548 -1.94722 27.791 0.318636 42.3762C1.31016 48.324 4.14231 53.7048 8.53227 57.8113V80.7519C8.53227 83.1588 10.3729 85.0002 12.7805 85.0002H80.752C83.1589 85.0002 85.0002 83.1588 85.0002 80.7519V21.2769C85.0002 18.8693 83.1589 17.0287 80.752 17.0287ZM45.3502 57.8113V68.0073H29.7734V65.0334C35.5787 64.4671 41.1019 61.9178 45.3502 57.8113ZM53.4214 42.518H63.7591V53.8466H48.8903C51.2972 50.4481 52.8551 46.6244 53.4214 42.518ZM45.3502 70.8394V82.168H29.7734V70.8394H45.3502ZM48.1823 70.8394H63.7591V82.168H48.1823V70.8394ZM48.1823 68.0073V56.6787H63.7591V68.0073H48.1823ZM66.5912 56.6787H82.168V68.0073H66.5912V56.6787ZM66.5912 53.8466V42.518H82.168V53.8466H66.5912ZM66.5912 39.6858V28.3573H82.168V39.6858H66.5912ZM63.7591 28.3573V39.6858H53.7048C53.7048 39.2606 53.8466 38.6943 53.8466 38.2698C53.8466 34.8713 53.1386 31.4722 51.8635 28.3573H63.7591ZM21.2769 4.28401C21.2769 3.43423 21.8432 2.86794 22.693 2.86794H31.1894C32.0385 2.86794 32.6055 3.43423 32.6055 4.28401C32.6055 5.1338 32.0385 5.70009 31.1894 5.70009H22.693C21.8432 5.70009 21.2769 5.1338 21.2769 4.28401ZM25.5251 8.53223H28.3573V11.5061C27.9321 11.5061 27.3658 11.3644 26.9412 11.3644C26.516 11.3644 25.9497 11.3644 25.5251 11.5061V8.53223ZM2.86798 38.2698C2.86798 24.9588 13.6296 14.1965 26.9412 14.1965C40.2522 14.1965 51.0144 24.9588 51.0144 38.2698C51.0144 51.5807 40.2522 62.343 26.9412 62.343C13.6296 62.343 2.86798 51.5807 2.86798 38.2698ZM26.9412 65.1751V68.0073H11.3644V60.2189C15.8954 63.4756 21.418 65.1751 26.9412 65.1751ZM11.3644 80.7519V70.8394H26.9412V82.168H12.7805C11.9307 82.168 11.3644 81.6017 11.3644 80.7519ZM80.752 82.168H66.5912V70.8394H82.168V80.7519C82.168 81.6017 81.6011 82.168 80.752 82.168Z" fill="black"/>
</g>
<defs>
<clipPath id="clip0">
<rect width="85" height="85" fill="white"/>
</clipPath>
</defs>
</svg>
