<svg width="91" height="90" viewBox="0 0 91 90" fill="none" xmlns="http://www.w3.org/2000/svg">
<g clip-path="url(#clip0)">
<path d="M66.2097 50.3133L60.1768 44.3466C60.0448 44.216 59.888 44.1124 59.7155 44.0418C59.543 43.9711 59.3581 43.9347 59.1714 43.9347C58.9846 43.9347 58.7997 43.9711 58.6272 44.0418C58.4547 44.1124 58.298 44.216 58.1659 44.3466C44.4056 57.9959 44.883 57.3927 44.0469 58.4304C42.8662 59.8955 45.1183 61.6134 46.2707 60.1833C46.9537 59.3357 46.5896 59.805 59.1714 47.3296L64.1989 52.302L61.223 55.2451C61.025 55.442 60.8903 55.6926 60.8359 55.9651C60.7815 56.2376 60.8099 56.5199 60.9173 56.7765C61.0248 57.0331 61.2066 57.2526 61.4399 57.4073C61.6732 57.5619 61.9476 57.6449 62.2284 57.6457C63.2907 57.6457 62.7605 57.4827 73.2479 47.33L77.2695 51.3074L60.1784 68.2119C59.6813 68.7038 59.0177 68.9962 58.3155 69.0328C57.6133 69.0693 56.9223 68.8475 56.3757 68.4099C55.8291 67.9724 55.4657 67.3502 55.3555 66.6634C55.2453 65.9765 55.3962 65.2737 55.779 64.6903C55.8818 64.5356 55.9527 64.3623 55.9877 64.1804C56.0226 63.9984 56.0209 63.8115 55.9826 63.6302C55.9443 63.449 55.8702 63.277 55.7645 63.1241C55.6588 62.9713 55.5237 62.8406 55.3668 62.7395C55.2099 62.6385 55.0344 62.5691 54.8503 62.5353C54.6662 62.5015 54.4772 62.504 54.2941 62.5426C54.111 62.5812 53.9374 62.6553 53.7833 62.7604C53.6292 62.8656 53.4976 62.9998 53.3961 63.1554C50.9689 66.8413 53.6094 71.8451 58.1661 71.845C58.913 71.8462 59.6528 71.7017 60.3431 71.4196C61.0334 71.1376 61.6606 70.7235 62.1888 70.2012L72.2423 60.2578L77.2695 65.2296L65.2042 77.1622C63.4686 78.8809 61.2248 80.0086 58.798 80.382C58.4281 80.4457 58.0987 80.6516 57.8817 80.9546C57.6647 81.2577 57.5778 81.6333 57.6398 81.9995C57.7018 82.3658 57.9077 82.6929 58.2127 82.9095C58.5176 83.1261 58.8968 83.2146 59.2675 83.1558C62.2795 82.6893 65.063 81.2866 67.2151 79.151L80.2857 66.224C80.4177 66.0934 80.5225 65.9384 80.5939 65.7678C80.6654 65.5972 80.7022 65.4143 80.7022 65.2296C80.7022 65.0449 80.6654 64.8621 80.5939 64.6914C80.5225 64.5208 80.4177 64.3658 80.2857 64.2352L74.253 58.269C86.8366 45.8237 80.3849 52.2035 89.3341 43.3531C89.864 42.8319 90.2841 42.212 90.5701 41.5291C90.856 40.8463 91.0022 40.1141 91 39.375C91 34.3246 84.8296 31.8976 81.2909 35.3976C73.2431 43.3568 80.01 36.6639 66.2097 50.3133ZM83.3017 37.3862C83.835 36.8587 84.5583 36.5624 85.3125 36.5624C86.0668 36.5624 86.7901 36.8587 87.3234 37.3862C87.8568 37.9137 88.1564 38.6291 88.1564 39.375C88.1564 40.1209 87.8568 40.8363 87.3234 41.3638L79.2801 49.3188L75.2583 45.3412L83.3017 37.3862Z" fill="#2C7D10"/>
<path d="M12.3424 63.971C13.0992 63.7135 13.9049 63.4839 14.7369 63.2854C18.1467 63.3754 19.9063 66.2581 19.9063 67.5C19.9063 67.8729 20.0561 68.2306 20.3227 68.4943C20.5894 68.7581 20.9511 68.9062 21.3282 68.9062C24.3918 68.9062 22.2629 61.9701 16.4454 60.674C19.6575 52.5234 29.0324 53.4879 29.2279 53.4375C28.7305 55.273 28.465 57.1624 28.4375 59.0625C28.4375 60.4192 29.9838 60.5229 29.8594 60.4687C30.2362 60.4687 30.5977 60.3208 30.8643 60.0574C31.1309 59.794 31.2809 59.4367 31.2813 59.0641C31.2813 59.0252 31.3023 55.1617 32.5411 52.6855C36.7601 45.1538 44.7448 43.6053 51.2872 46.0126C51.6408 46.1427 52.0321 46.1285 52.375 45.9732C52.718 45.818 52.9846 45.5343 53.116 45.1846C53.2475 44.835 53.2332 44.448 53.0762 44.1088C52.9192 43.7696 52.6324 43.506 52.2788 43.3759C50.5572 42.7463 48.7532 42.3641 46.9219 42.2411V30.2147L53.6069 25.0198C57.543 28.8003 62.5947 27.2777 66.9131 23.9213C72.9156 19.2561 75.6909 7.99556 75.8062 7.51884C75.856 7.31268 75.858 7.09806 75.8121 6.89102C75.7662 6.68399 75.6736 6.48989 75.5412 6.32325C75.4087 6.1566 75.2399 6.02172 75.0474 5.92869C74.8548 5.83565 74.6435 5.78687 74.4291 5.78599C73.935 5.78388 62.2147 5.7888 56.2114 10.4542C52.0072 13.7218 49.2581 18.1297 51.8747 22.7881L46.9219 26.638C46.9428 23.3889 46.3251 20.1667 45.1032 17.1506C48.0212 14.0375 48.2622 9.66232 43.3025 5.07988C38.5576 0.695541 28.522 0.028978 28.097 0.00278655C27.8876 -0.0101249 27.6779 0.0229484 27.483 0.0996344C27.2881 0.17632 27.1127 0.294719 26.9695 0.446339C26.8263 0.597959 26.7188 0.779043 26.6546 0.976604C26.5905 1.17417 26.5714 1.38331 26.5987 1.58904C26.654 2.00634 28.0078 11.8635 32.7527 16.2478C35.6336 18.9096 39.2171 20.6386 42.7425 18.9242C44.7404 24.3713 43.8603 28.1141 44.0782 34.1954L40.0109 32.0046C40.7053 29.6668 40.473 25.8511 34.0765 22.4045C28.1807 19.2282 18.2789 20.4481 17.8602 20.5015C17.6374 20.5299 17.4245 20.6101 17.2391 20.7356C17.0536 20.861 16.9009 21.0282 16.7933 21.2233C16.6858 21.4184 16.6266 21.6359 16.6205 21.8581C16.6144 22.0802 16.6616 22.3006 16.7583 22.5012C16.9397 22.8781 21.2738 31.7673 27.1698 34.9435C31.2205 37.1257 35.7997 38.0317 38.6891 34.4956L44.0782 37.398V42.2402C38.3196 42.6528 33.5451 45.5853 30.4612 50.625C28.9926 50.7865 23.5884 49.7709 18.4286 53.6187C16.0332 55.3891 14.2787 57.8762 13.4256 60.7108C12.7338 60.8915 12.0611 61.0926 11.4172 61.3116C11.2404 61.3715 11.0772 61.4653 10.9371 61.5876C10.797 61.7099 10.6826 61.8583 10.6005 62.0244C10.5185 62.1905 10.4703 62.3709 10.4588 62.5554C10.4473 62.7399 10.4727 62.9248 10.5335 63.0996C10.5943 63.2744 10.6894 63.4356 10.8133 63.574C10.9371 63.7124 11.0874 63.8253 11.2554 63.9062C11.4234 63.9872 11.6059 64.0345 11.7925 64.0456C11.979 64.0568 12.166 64.0314 12.3426 63.971H12.3424ZM57.9692 12.6655C61.8841 9.62277 69.1131 8.85618 72.5317 8.66335C71.5363 11.9021 69.0783 18.6616 65.1557 21.71C62.249 23.9692 58.6861 25.6377 55.8721 23.2595L66.2845 15.1683C66.4313 15.0542 66.554 14.9127 66.6455 14.7517C66.737 14.5907 66.7956 14.4135 66.8178 14.2301C66.8401 14.0468 66.8256 13.8609 66.7753 13.6831C66.7249 13.5053 66.6396 13.339 66.5242 13.1938C66.4089 13.0485 66.2657 12.9272 66.103 12.8367C65.9402 12.7462 65.761 12.6883 65.5756 12.6663C65.3903 12.6442 65.2023 12.6585 65.0225 12.7084C64.8427 12.7582 64.6746 12.8426 64.5277 12.9566L54.1527 21.0188C52.6706 17.8066 55.1739 14.838 57.9692 12.6655ZM43.7286 14.3179C42.2257 11.6635 40.2431 9.30439 37.8791 7.35783C37.5894 7.11904 37.2157 7.00385 36.8401 7.03761C36.4645 7.07136 36.1179 7.2513 35.8764 7.53783C35.635 7.82435 35.5185 8.194 35.5527 8.56546C35.5868 8.93691 35.7687 9.27974 36.0584 9.51853C38.3496 11.4045 40.2346 13.7262 41.602 16.3459C39.2203 17.5902 36.6609 16.0107 34.6941 14.1934C31.7754 11.4961 30.3128 5.87265 29.7313 2.9981C32.6708 3.37673 38.4424 4.43827 41.3611 7.13511C43.5709 9.17681 45.3001 11.7569 43.7286 14.3172V14.3179ZM37.4145 30.6068L30.184 26.7117C30.02 26.6234 29.84 26.5679 29.6543 26.5483C29.4686 26.5288 29.2809 26.5456 29.1018 26.5979C28.9227 26.6501 28.7557 26.7367 28.6105 26.8528C28.4652 26.9688 28.3445 27.112 28.2552 27.2742C28.1659 27.4364 28.1098 27.6144 28.09 27.798C28.0703 27.9817 28.0873 28.1673 28.1401 28.3445C28.1929 28.5216 28.2805 28.6867 28.3978 28.8304C28.5151 28.9741 28.6599 29.0935 28.8239 29.1818L36.1247 33.114C34.5722 34.5684 32.0262 34.3568 28.5307 32.4736C24.9237 30.5305 21.821 25.7558 20.3089 23.1171C23.3705 22.9428 29.1094 22.9313 32.7161 24.875C36.0819 26.6876 37.654 28.61 37.4145 30.6061V30.6068Z" fill="black"/>
<path d="M86.7895 65.7503C86.5216 65.4877 86.1593 65.3412 85.7822 65.3428C85.4051 65.3445 85.0441 65.4943 84.7786 65.7592C84.5132 66.0241 84.365 66.3825 84.3667 66.7555C84.3684 67.1284 84.5198 67.4855 84.7877 67.748C92.0746 74.9311 86.8745 87.1875 76.7813 87.1875H14.2188C6.85239 87.1875 1.12401 80.2905 3.29486 72.4264C3.39416 72.0666 3.34484 71.6824 3.15777 71.3585C2.9707 71.0346 2.66119 70.7975 2.29733 70.6993C1.93347 70.6011 1.54507 70.6499 1.21757 70.8349C0.890066 71.0199 0.650294 71.326 0.550997 71.6859C-2.12853 81.3976 5.04003 90 14.2188 90H76.7813C80.551 89.9957 84.1651 88.5128 86.8307 85.8765C89.4963 83.2402 90.9958 79.6658 91 75.9375C91 71.5547 89.3691 68.0611 86.7895 65.7503Z" fill="black"/>
<path d="M49.0547 81.5625C48.6776 81.5625 48.3159 81.7106 48.0493 81.9744C47.7826 82.2381 47.6328 82.5958 47.6328 82.9687C47.6328 86.0709 55.4531 83.9811 55.4531 78.0469C55.4545 76.7363 55.044 75.4578 54.2784 74.3881C53.5129 73.3184 52.4301 72.5105 51.1799 72.0761C51.5641 63.1425 39.3751 59.8695 35.134 67.7332C34.1834 67.4721 33.1846 67.4317 32.2156 67.6152C31.2467 67.7988 30.3336 68.2012 29.5478 68.7911C28.762 69.3811 28.1246 70.1427 27.6853 71.0164C27.2461 71.8901 27.0169 72.8524 27.0156 73.8281C27.0156 79.7992 34.8359 81.8212 34.8359 78.75C34.8359 78.377 34.6861 78.0193 34.4195 77.7556C34.1528 77.4919 33.7912 77.3437 33.4141 77.3437C32.8692 77.3439 32.3316 77.2202 31.8428 76.9821C31.354 76.7441 30.9271 76.3981 30.595 75.971C30.2629 75.5438 30.0345 75.0468 29.9276 74.5184C29.8206 73.99 29.8378 73.4444 29.978 72.9237C30.1182 72.403 30.3775 71.9211 30.7359 71.5153C31.0943 71.1094 31.5423 70.7905 32.0452 70.5832C32.5481 70.3758 33.0925 70.2856 33.6362 70.3194C34.18 70.3533 34.7086 70.5103 35.1813 70.7783C35.3649 70.8827 35.5699 70.9452 35.7811 70.9612C35.9923 70.9772 36.2044 70.9464 36.4021 70.8709C36.5997 70.7954 36.7777 70.6772 36.9232 70.525C37.0687 70.3727 37.178 70.1902 37.243 69.9908C37.6876 68.6168 38.649 67.4643 39.9285 66.7715C41.208 66.0787 42.7077 65.8986 44.1176 66.2684C45.5275 66.6381 46.7399 67.5295 47.5042 68.7583C48.2684 69.9871 48.5261 71.4593 48.224 72.8706C48.1837 73.0622 48.1843 73.26 48.2257 73.4514C48.2671 73.6428 48.3485 73.8235 48.4646 73.982C48.5806 74.1404 48.7289 74.2732 48.8998 74.3718C49.0708 74.4704 49.2606 74.5326 49.4573 74.5544C50.3583 74.6573 51.1854 75.0969 51.7694 75.7832C52.3534 76.4696 52.65 77.3507 52.5985 78.2463C52.5471 79.1418 52.1515 79.9841 51.4926 80.6006C50.8338 81.2171 49.9617 81.5612 49.0547 81.5625Z" fill="black"/>
<path d="M5.6875 67.5C6.47278 67.5 7.10937 66.8704 7.10937 66.0938C7.10937 65.3171 6.47278 64.6875 5.6875 64.6875C4.90222 64.6875 4.26562 65.3171 4.26562 66.0938C4.26562 66.8704 4.90222 67.5 5.6875 67.5Z" fill="black"/>
<path d="M58.2969 61.875C59.0822 61.875 59.7188 61.2454 59.7188 60.4688C59.7188 59.6921 59.0822 59.0625 58.2969 59.0625C57.5116 59.0625 56.875 59.6921 56.875 60.4688C56.875 61.2454 57.5116 61.875 58.2969 61.875Z" fill="black"/>
</g>
<defs>
<clipPath id="clip0">
<rect width="91" height="90" fill="white"/>
</clipPath>
</defs>
</svg>
