<svg width="90" height="90" viewBox="0 0 90 90" fill="none" xmlns="http://www.w3.org/2000/svg">
<g clip-path="url(#clip0)">
<path d="M88.679 12.681H62.2197L46.3208 4.73168V1.321C46.321 0.591328 45.7295 0 45 0C44.2705 0 43.679 0.591328 43.679 1.321V4.73168L27.7801 12.681H1.321C0.591504 12.681 0 13.2722 0 14.002V19.6381C0 20.3678 0.591504 20.9591 1.321 20.9591H4.22701V67.5439C4.22701 68.2736 4.81852 68.8649 5.54801 68.8649H43.6792V80.9079L33.1961 87.5638C32.5884 87.9497 32.4032 88.7795 32.789 89.3872C33.1748 89.9949 34.0044 90.1796 34.6122 89.7945L43.6792 84.0375V88.6792C43.6792 89.4088 44.2707 90.0002 45.0002 90.0002C45.7297 90.0002 46.3212 89.4088 46.3212 88.6792V84.0175L55.5722 89.7993C56.2321 90.2116 57.1271 89.9496 57.4636 89.2501C57.7513 88.6516 57.5351 87.9105 56.9725 87.5589L46.3213 80.9019V68.8649H66.7812C67.5107 68.8649 68.1022 68.2736 68.1022 67.5439C68.1022 66.8143 67.5107 66.2229 66.7812 66.2229H6.86883V20.9589H83.131V66.2231H73.2386C72.5091 66.2231 71.9176 66.8145 71.9176 67.5441C71.9176 68.2738 72.5091 68.8651 73.2386 68.8651H84.452C85.1815 68.8651 85.773 68.2738 85.773 67.5441V20.9589H88.679C89.4085 20.9589 90 20.3676 90 19.6379V14.002C90 13.2722 89.4085 12.681 88.679 12.681ZM46.321 12.593V7.68516L56.3126 12.6809H46.3166C46.3185 12.6519 46.321 12.6227 46.321 12.593ZM43.679 7.68516V12.593C43.679 12.6227 43.6815 12.6519 43.6834 12.681H33.6874L43.679 7.68516ZM87.3582 18.3169H2.64182V15.3229H87.358V18.3169H87.3582Z" fill="black"/>
<path d="M67.544 56.3601H60.411V30.9099C60.411 30.1803 59.8195 29.5889 59.09 29.5889H53.4539C52.7244 29.5889 52.1329 30.1803 52.1329 30.9099V56.3601H49.1388V36.546C49.1388 35.8163 48.5473 35.225 47.8178 35.225H42.1817C41.4523 35.225 40.8607 35.8163 40.8607 36.546V56.3601H37.8667V40.773C37.8667 40.0434 37.2752 39.452 36.5457 39.452H30.9096C30.1801 39.452 29.5886 40.0434 29.5886 40.773V56.3601H23.7764V28.092C23.7764 27.3623 23.1849 26.771 22.4554 26.771C21.7259 26.771 21.1344 27.3623 21.1344 28.092V57.6811C21.1344 58.4107 21.7259 59.0021 22.4554 59.0021H67.544C68.2735 59.0021 68.865 58.4107 68.865 57.6811C68.865 56.9514 68.2737 56.3601 67.544 56.3601ZM35.225 56.3601H32.2309V42.0938H35.225V56.3601ZM46.4972 56.3601H43.5031V37.867H46.4972V56.3601ZM57.7691 56.3601H54.7751V32.2309H57.7691V56.3601Z" fill="#2C7D10"/>
</g>
<defs>
<clipPath id="clip0">
<rect width="90" height="90" fill="white"/>
</clipPath>
</defs>
</svg>
